<svg xmlns="http://www.w3.org/2000/svg" width="1616" height="962" viewBox="0 0 1616 962">
  <g id="Group_19" data-name="Group 19" transform="translate(-152 -174)">
    <rect id="Rectangle_7" data-name="Rectangle 7" width="1616" height="962" transform="translate(152 174)" fill="none" opacity="0.134"/>
    <g id="Group_14" data-name="Group 14" transform="translate(1075.391 246.871)">
      <g id="Group_3" data-name="Group 3" transform="translate(51.782)">
        <path id="Path_4" data-name="Path 4" d="M3520.052,136.875s2.346,139.232,0,198.631,0,47.621,0,47.621l145.719,243.538,68.236,162.974,67.852-374.006,33.713-278.757Z" transform="translate(-3235.98 -136.875)"/>
        <rect id="Rectangle_6" data-name="Rectangle 6" width="41.408" height="252.219" transform="matrix(0.643, 0.766, -0.766, 0.643, 554.672, 214.233)" fill="#fff"/>
        <path id="Path_7" data-name="Path 7" d="M3774.226,146.868H3719.1s-6.992,120.885-10.875,142.349c-3.682,20.347-13.956,37.3-14.169,37.7-1.881,3.54-7.918,5.065-11.384,13.635s-6.756,10.424-6.756,18.983c0,.009,1.169,16.012,7.409,19.707s1.795-13.285,2.18-18.779,3.2-12.424,12.494-11.07c4.02.586,4.352,8.5,12.005,12.5s14.126,6.908,18.607,3.525c3.829-2.89-5.863-4.736-13.042-10.612-6.8-5.563-11.077-10.148-5.565-14.259-.38,3.814,27.044,28.269,30.744,19.238,2.7-4.1-18.042-19.238-18.042-19.238s-7.529-14.386-3.6-13.635c.3.058,5.347,10.555,9.509,15.066,5.713,6.19,14.359,7.747,16.187,3.025.775-3.824-7-4.423-10.329-11.242s-2.537-11.014-2.993-16.034c-.99-10.905,3.718-8.617,5.669-17.277s41.625-148.978,37.082-153.587" transform="translate(-3220.024 -41.334)" stroke="#fff" stroke-width="1"/>
        <path id="Path_8" data-name="Path 8" d="M3809.9,681.127l123.459,79.984L3864,848.13,3719.12,774.953Z" transform="translate(-3320.507 -170.571)"/>
        <path id="Path_9" data-name="Path 9" d="M111.356,0,313.472,200.5l-29.9,59.525L0,100.039Z" transform="translate(306.74 464.253) rotate(90)"/>
        <g id="Group_1" data-name="Group 1" transform="translate(0 120.428)">
          <g id="Path_3" data-name="Path 3" transform="translate(342.324 619.673) rotate(-133)" fill="#fff">
            <path d="M 499.3801574707031 367.6821594238281 L 2.500047922134399 336.6982116699219 L 2.499982357025146 35.7244873046875 L 490.9642333984375 2.670775651931763 L 499.3801574707031 367.6821594238281 Z" stroke="none"/>
            <path d="M 488.5250854492188 5.341522216796875 L 4.999969482421875 38.06106567382812 L 5.00006103515625 334.3492126464844 L 496.8180541992188 365.0174255371094 L 488.5250854492188 5.341522216796875 M 493.4032592773438 -3.0517578125e-05 L 501.9422607421875 370.3467102050781 L 6.103515625e-05 339.0471801757812 L -3.0517578125e-05 33.38796997070312 L 493.4032592773438 -3.0517578125e-05 Z" stroke="none"/>
          </g>
          <text id="I_AM_ANGRY" data-name="I
AM 
ANGRY" transform="translate(271 382.754) rotate(-133)" font-size="61" font-family="Poppins-Bold, Poppins" font-weight="700"><tspan x="-8.814" y="0">I</tspan><tspan x="-56.211" y="81">AM </tspan><tspan x="-108.305" y="162">ANGRY</tspan></text>
        </g>
      </g>
      <rect id="Rectangle_11" data-name="Rectangle 11" width="156.299" height="48.626" transform="matrix(0.839, 0.545, -0.545, 0.839, 26.484, 686.311)"/>
      <rect id="Rectangle_12" data-name="Rectangle 12" width="156.299" height="48.626" transform="translate(547.706 749.171) rotate(-45)"/>
    </g>
    <g id="Group_17" data-name="Group 17" transform="translate(285.969 973.433) rotate(-79)" opacity="0.129">
      <g id="Group_3-2" data-name="Group 3" transform="translate(98.502 0)">
        <path id="Path_4-2" data-name="Path 4" d="M1.043,0s2.346,139.232,0,198.631,0,47.621,0,47.621L146.762,489.789,215,652.763l67.852-374.006L316.563,0Z" transform="translate(236.309 0)" fill="#919191" stroke="#fff" stroke-width="1"/>
        <g id="Rectangle_6-2" data-name="Rectangle 6" transform="translate(507.953 214.233) rotate(50)" fill="#919191" stroke="#707070" stroke-width="1">
          <rect width="41.408" height="252.22" stroke="none"/>
          <rect x="0.5" y="0.5" width="40.408" height="251.22" fill="none"/>
        </g>
        <path id="Path_7-2" data-name="Path 7" d="M98.311,0H43.185S36.193,120.885,32.31,142.349c-3.682,20.347-13.956,37.3-14.169,37.7-1.881,3.54-7.918,5.065-11.384,13.635S0,204.108,0,212.667c0,.009,1.169,16.012,7.409,19.707S9.2,219.089,9.588,213.6s3.2-12.424,12.494-11.07c4.02.586,4.352,8.5,12.005,12.5s14.126,6.908,18.607,3.525c3.829-2.89-5.863-4.736-13.042-10.612-6.8-5.563-11.077-10.148-5.565-14.259-.38,3.814,27.044,28.269,30.744,19.238,2.7-4.1-18.042-19.238-18.042-19.238s-7.529-14.386-3.6-13.635c.3.058,5.347,10.555,9.509,15.066,5.713,6.19,14.359,7.747,16.187,3.025.775-3.824-7-4.423-10.329-11.242s-2.537-11.014-2.993-16.034c-.99-10.905,3.718-8.617,5.669-17.277S102.855,4.608,98.311,0" transform="translate(409.171 105.535)" fill="#919191" stroke="#fff" stroke-width="1"/>
        <path id="Path_8-2" data-name="Path 8" d="M90.779,0,214.239,79.984,144.882,167,0,93.826Z" transform="translate(351.894 510.556)" fill="#919191" stroke="#707070" stroke-width="1"/>
        <path id="Path_9-2" data-name="Path 9" d="M197.419,0,555.742,327.442l-53.016,97.213L0,163.38Z" transform="translate(424.655 221.983) rotate(90)" fill="#919191" stroke="#707070" stroke-width="1"/>
      </g>
      <g id="Rectangle_11-2" data-name="Rectangle 11" transform="matrix(0.839, 0.545, -0.545, 0.839, 26.484, 686.312)" fill="#919191" stroke="#707070" stroke-width="1">
        <rect width="156.299" height="48.626" stroke="none"/>
        <rect x="0.5" y="0.5" width="155.299" height="47.626" fill="none"/>
      </g>
      <g id="Rectangle_12-2" data-name="Rectangle 12" transform="translate(547.706 749.17) rotate(-45)" fill="#919191" stroke="#707070" stroke-width="1">
        <rect width="156.299" height="48.626" stroke="none"/>
        <rect x="0.5" y="0.5" width="155.299" height="47.626" fill="none"/>
      </g>
    </g>
    <text id="How_to_Fix_" data-name="How to Fix " transform="translate(286 493)" font-size="110" font-family="NHaasGroteskTXPro-65Md, Neue Haas Grotesk Text Pro" font-weight="500"><tspan x="0" y="0">How to Fix </tspan></text>
    <text id="American_" data-name="American " transform="translate(872 493)" font-size="110" font-family="NHaasGroteskTXPro-65Md, Neue Haas Grotesk Text Pro" font-weight="500"><tspan x="0" y="0">American </tspan></text>
    <text id="Capitalism" transform="translate(286 643)" font-size="110" font-family="NHaasGroteskTXPro-65Md, Neue Haas Grotesk Text Pro" font-weight="500"><tspan x="0" y="0">Capitalism</tspan></text>
  </g>
</svg>
